<?xml version="1.0" standalone="no"?>
<!DOCTYPE svg PUBLIC "-//W3C//DTD SVG 20010904//EN"
 "http://www.w3.org/TR/2001/REC-SVG-20010904/DTD/svg10.dtd">
<svg version="1.0" xmlns="http://www.w3.org/2000/svg"
 width="931.000000pt" height="936.000000pt" viewBox="0 0 931.000000 936.000000"
 preserveAspectRatio="xMidYMid meet">

<g transform="translate(0.000000,936.000000) scale(0.100000,-0.100000)"
fill="#000000" stroke="none">
<path d="M2018 8023 l-2018 -1337 0 -2278 0 -2278 475 0 475 0 2 2007 3 2007
1505 988 c828 544 1519 996 1536 1005 l32 16 1516 -1017 1516 -1017 0 -795 0
-794 495 0 495 0 0 1058 0 1057 -1999 1355 c-1099 745 -2003 1355 -2007 1357
-5 1 -917 -599 -2026 -1334z"/>
<path d="M2955 6256 c-65 -30 -112 -78 -142 -143 -24 -52 -24 -52 -21 -385 3
-296 5 -337 21 -365 28 -52 76 -102 126 -131 l46 -27 345 0 c314 0 348 2 378
18 57 31 114 90 138 142 23 49 24 55 24 375 0 320 -1 326 -24 375 -29 64 -77
112 -141 141 -49 23 -55 24 -375 24 -320 0 -326 -1 -375 -24z"/>
<path d="M4375 6257 c-28 -14 -69 -45 -92 -71 -70 -79 -73 -98 -73 -446 0
-359 3 -374 85 -456 83 -83 96 -86 477 -82 309 3 325 4 363 25 57 31 104 80
131 138 23 49 24 55 24 380 0 372 -1 376 -77 452 -78 78 -77 78 -453 81 -334
2 -335 2 -385 -21z"/>
<path d="M2960 4869 c-55 -25 -114 -80 -143 -134 -21 -39 -22 -50 -22 -385 0
-335 1 -346 22 -385 29 -54 88 -109 143 -134 42 -19 65 -21 370 -21 321 0 326
0 375 24 61 29 117 86 144 146 19 42 21 65 21 370 0 305 -2 328 -21 370 -27
60 -83 117 -144 146 -49 24 -54 24 -375 24 -305 0 -328 -2 -370 -21z"/>
<path d="M4372 4864 c-64 -32 -125 -100 -146 -161 -23 -68 -23 -638 0 -705 19
-58 73 -120 132 -156 l47 -27 333 -3 333 -3 53 24 c61 28 114 78 142 133 17
36 19 66 22 374 3 366 3 364 -56 446 -20 28 -51 52 -93 73 l-62 31 -327 0
-326 0 -52 -26z"/>
<path d="M8740 4690 c-60 -11 -126 -37 -177 -71 -23 -15 -961 -760 -2084
-1654 -1122 -895 -2042 -1625 -2043 -1623 -24 33 -1494 1683 -1517 1702 -44
38 -133 81 -198 96 -75 18 -211 8 -284 -20 -130 -49 -245 -173 -287 -306 -41
-135 -20 -301 54 -409 23 -34 1986 -2258 2122 -2404 2 -2 34 23 71 56 37 33
1121 898 2408 1922 1287 1025 2359 1884 2382 1909 195 215 151 566 -89 725
-103 67 -245 98 -358 77z"/>
</g>
</svg>
